<svg width="1200" height="630" viewBox="0 0 1200 630" xmlns="http://www.w3.org/2000/svg">
	<defs>
		<linearGradient id="bgGradient" x1="0%" y1="0%" x2="100%" y2="100%">
			<stop offset="0%" style="stop-color:#3f606f"/>
			<stop offset="100%" style="stop-color:#5a8a9d"/>
		</linearGradient>
	</defs>

	<!-- Background -->
	<rect width="1200" height="630" fill="url(#bgGradient)"/>

	<!-- Scale/Balance Icon -->
	<g transform="translate(500, 100)">
		<!-- Base -->
		<rect x="85" y="140" width="30" height="60" fill="white" opacity="0.95"/>
		<rect x="60" y="195" width="80" height="15" rx="3" fill="white" opacity="0.95"/>
		<!-- Beam -->
		<rect x="20" y="70" width="160" height="12" rx="3" fill="white" opacity="0.95"/>
		<!-- Left pan -->
		<path d="M30 90 L10 140 Q10 160 50 160 Q90 160 90 140 L70 90" fill="white" opacity="0.9"/>
		<!-- Right pan -->
		<path d="M130 90 L110 140 Q110 160 150 160 Q190 160 190 140 L170 90" fill="white" opacity="0.9"/>
		<!-- CHF badge -->
		<circle cx="170" cy="50" r="30" fill="#cc5c53"/>
		<text x="170" y="60" font-family="Arial, sans-serif" font-size="24" font-weight="bold" fill="white" text-anchor="middle">CHF</text>
	</g>

	<!-- Main title -->
	<text x="600" y="360" font-family="Arial, Helvetica, sans-serif" font-size="68" font-weight="bold" fill="white" text-anchor="middle">
		Gerichtskostenrechner
	</text>

	<!-- Subtitle -->
	<text x="600" y="430" font-family="Arial, Helvetica, sans-serif" font-size="36" fill="white" opacity="0.9" text-anchor="middle">
		Prozesskosten für alle 26 Kantone
	</text>

	<!-- Features -->
	<g transform="translate(200, 500)">
		<circle cx="0" cy="0" r="8" fill="#cc5c53"/>
		<text x="20" y="6" font-family="Arial, sans-serif" font-size="24" fill="white" opacity="0.9">Nach Streitwert</text>
	</g>
	<g transform="translate(480, 500)">
		<circle cx="0" cy="0" r="8" fill="#cc5c53"/>
		<text x="20" y="6" font-family="Arial, sans-serif" font-size="24" fill="white" opacity="0.9">Verfahrensarten</text>
	</g>
	<g transform="translate(760, 500)">
		<circle cx="0" cy="0" r="8" fill="#cc5c53"/>
		<text x="20" y="6" font-family="Arial, sans-serif" font-size="24" fill="white" opacity="0.9">Kostenlos</text>
	</g>

	<!-- Footer -->
	<text x="600" y="590" font-family="Arial, Helvetica, sans-serif" font-size="28" fill="white" opacity="0.7" text-anchor="middle">gerichtskostenrechner.ch</text>
</svg>
